<svg width="191" height="47" viewBox="0 0 191 47" fill="none" xmlns="http://www.w3.org/2000/svg">
<path d="M0.66 46V0.579998H8.52V19.78L7.44 18.64C8.2 16.68 9.44 15.2 11.16 14.2C12.92 13.16 14.96 12.64 17.28 12.64C19.68 12.64 21.8 13.16 23.64 14.2C25.52 15.24 26.98 16.7 28.02 18.58C29.06 20.42 29.58 22.56 29.58 25V46H21.72V26.86C21.72 25.42 21.44 24.18 20.88 23.14C20.32 22.1 19.54 21.3 18.54 20.74C17.58 20.14 16.44 19.84 15.12 19.84C13.84 19.84 12.7 20.14 11.7 20.74C10.7 21.3 9.92 22.1 9.36 23.14C8.8 24.18 8.52 25.42 8.52 26.86V46H0.66ZM46.1264 46.72C43.8464 46.72 41.8664 46.34 40.1864 45.58C38.5064 44.82 37.2064 43.74 36.2864 42.34C35.3664 40.9 34.9064 39.24 34.9064 37.36C34.9064 35.56 35.3064 33.96 36.1064 32.56C36.9064 31.12 38.1464 29.92 39.8264 28.96C41.5064 28 43.6264 27.32 46.1864 26.92L56.8664 25.18V31.18L47.6864 32.74C46.1264 33.02 44.9664 33.52 44.2064 34.24C43.4464 34.96 43.0664 35.9 43.0664 37.06C43.0664 38.18 43.4864 39.08 44.3264 39.76C45.2064 40.4 46.2864 40.72 47.5664 40.72C49.2064 40.72 50.6464 40.38 51.8864 39.7C53.1664 38.98 54.1464 38 54.8264 36.76C55.5464 35.52 55.9064 34.16 55.9064 32.68V24.28C55.9064 22.88 55.3464 21.72 54.2264 20.8C53.1464 19.84 51.7064 19.36 49.9064 19.36C48.2264 19.36 46.7264 19.82 45.4064 20.74C44.1264 21.62 43.1864 22.8 42.5864 24.28L36.1664 21.16C36.8064 19.44 37.8064 17.96 39.1664 16.72C40.5664 15.44 42.2064 14.44 44.0864 13.72C45.9664 13 48.0064 12.64 50.2064 12.64C52.8864 12.64 55.2464 13.14 57.2864 14.14C59.3264 15.1 60.9064 16.46 62.0264 18.22C63.1864 19.94 63.7664 21.96 63.7664 24.28V46H56.3264V40.42L58.0064 40.3C57.1664 41.7 56.1664 42.88 55.0064 43.84C53.8464 44.76 52.5264 45.48 51.0464 46C49.5664 46.48 47.9264 46.72 46.1264 46.72ZM71.0311 46V13.36H78.4111V20.62L77.8111 19.54C78.5711 17.1 79.7511 15.4 81.3511 14.44C82.9911 13.48 84.9511 13 87.2311 13H89.1511V19.96H86.3311C84.0911 19.96 82.2911 20.66 80.9311 22.06C79.5711 23.42 78.8911 25.34 78.8911 27.82V46H71.0311ZM108.653 46.72C105.493 46.72 102.673 45.98 100.193 44.5C97.7125 42.98 95.7525 40.92 94.3125 38.32C92.8725 35.72 92.1525 32.84 92.1525 29.68C92.1525 26.48 92.8725 23.6 94.3125 21.04C95.7525 18.48 97.7125 16.44 100.193 14.92C102.713 13.4 105.513 12.64 108.593 12.64C111.073 12.64 113.273 13.14 115.193 14.14C117.153 15.1 118.693 16.46 119.812 18.22L118.613 19.84V0.579998H126.473V46H119.033V39.7L119.873 41.26C118.753 43.02 117.193 44.38 115.193 45.34C113.193 46.26 111.013 46.72 108.653 46.72ZM109.493 39.52C111.293 39.52 112.873 39.1 114.233 38.26C115.593 37.42 116.653 36.26 117.413 34.78C118.213 33.3 118.613 31.6 118.613 29.68C118.613 27.8 118.213 26.12 117.413 24.64C116.653 23.12 115.593 21.94 114.233 21.1C112.873 20.26 111.293 19.84 109.493 19.84C107.733 19.84 106.153 20.28 104.753 21.16C103.353 22 102.253 23.16 101.453 24.64C100.693 26.08 100.313 27.76 100.313 29.68C100.313 31.6 100.693 33.3 101.453 34.78C102.253 36.26 103.353 37.42 104.753 38.26C106.153 39.1 107.733 39.52 109.493 39.52ZM133.785 46V13.36H141.645V46H133.785ZM133.785 9.7V1.3H141.645V9.7H133.785ZM148.902 46V0.579998H156.762V30.34L153.762 29.44L169.122 13.36H178.902L166.842 26.5L179.142 46H170.142L159.462 29.08L164.142 28.12L154.302 38.68L156.762 33.88V46H148.902Z" fill="black"/>
<path d="M181.443 46V37.06H190.383V46H181.443Z" fill="#4C60E6"/>
</svg>
