<svg width="75" height="75" viewBox="0 0 75 75" fill="none" xmlns="http://www.w3.org/2000/svg">
<g clip-path="url(#clip0_32_4)">
<g clip-path="url(#clip1_32_4)">
<path d="M27.6494 13.3023C27.3571 13.3631 27.0709 13.1755 27.0101 12.8832C26.9493 12.591 27.137 12.3048 27.4292 12.244C35.8497 10.4713 43.0361 11.9251 48.6638 15.3209C52.1076 17.3989 54.9654 20.2058 57.1634 23.4468C59.358 26.6826 60.8925 30.3495 61.6933 34.1534C63.1169 40.9156 62.2257 48.1188 58.6072 54.1156C51.416 66.0335 38.2763 70.0894 26.2637 68.2735C25.8191 68.2062 25.376 68.1309 24.9348 68.0477C27.2103 69.5881 29.5623 70.7529 31.9484 71.5719C35.5089 71.6052 39.1607 71.0521 42.7125 70.019C50.8389 67.6554 58.4272 62.786 63.201 56.6808C64.0503 55.5946 64.8109 54.4678 65.4697 53.3079C69.4002 46.3876 70.5357 38.4714 69.5189 30.9281C69.0911 27.7545 68.2826 24.6478 67.1413 21.7095C63.6015 17.2144 58.9302 13.3537 53.7503 10.3341C45.4934 5.5207 37.4329 3.29605 30.2029 3.23637C27.5993 4.23593 25.0627 5.54821 22.6422 7.11265C17.6637 10.3303 13.181 14.6119 9.61791 19.4322C5.02201 25.6496 2.47403 31.4624 1.52387 36.7469C2.0145 41.19 3.22853 45.9657 5.27032 51.0055C6.56108 54.1916 8.18045 57.1861 10.0939 59.8515C10.2431 60.0593 10.3942 60.2652 10.5469 60.469C11.4087 61.1542 12.3143 61.7943 13.2574 62.3873C15.4151 63.744 17.7687 64.8542 20.2406 65.6966C19.6879 65.188 19.1416 64.655 18.6026 64.0966C15.886 61.2827 13.6406 58.1418 11.9268 55.0001C10.0703 51.5968 8.83645 48.1917 8.30136 45.1971C8.24875 44.9025 8.44492 44.6211 8.73951 44.5685C9.03409 44.5159 9.31555 44.712 9.36815 45.0066C9.88482 47.8981 11.0783 51.1898 12.875 54.4836C14.5438 57.5427 16.732 60.603 19.3815 63.3473C20.4862 64.4916 21.6215 65.5267 22.7814 66.4572C23.978 66.7674 25.1951 67.0166 26.4245 67.2024C38.0441 68.959 50.7443 65.0513 57.6801 53.5568C61.152 47.8029 62.0048 40.8801 60.635 34.3735C59.8623 30.7035 58.3837 27.1685 56.2702 24.0521C54.1602 20.9409 51.4148 18.2452 48.105 16.248C42.6975 12.9851 35.7768 11.5913 27.6494 13.3023ZM22.2895 67.4472C19.0759 66.5923 16.006 65.3087 13.228 63.6376C14.2255 64.6787 15.2798 65.6388 16.3876 66.5051C17.2596 67.1869 18.1722 67.7952 19.1194 68.3332C22.0091 69.9744 25.2088 70.95 28.5492 71.3543C26.4098 70.3441 24.3132 69.0486 22.2895 67.4472ZM9.76907 61.2311C7.01167 59.0189 4.68966 56.3556 3.0021 53.2966C0.417535 48.6118 -0.677719 43.0096 0.429605 36.695C-0.0560126 32.1385 0.201128 27.9186 1.09412 24.1071C2.56328 17.8363 5.75081 12.6716 10.1821 8.92839C14.6094 5.18855 20.2747 2.87303 26.704 2.29684C27.7827 2.20016 28.8831 2.15302 30.0026 2.1559C32.4527 1.23036 34.9622 0.573148 37.4929 0.232018C43.309 -0.551977 48.7036 0.691058 53.3911 3.35337C57.9915 5.96627 61.9065 9.94703 64.8642 14.7177C66.1177 16.7397 67.1994 18.9042 68.0887 21.1668C69.604 23.1068 70.9159 25.1621 71.9768 27.3176C75.1269 33.7178 76.0693 40.9903 73.5835 48.7319C71.5988 54.913 68.1515 60.2966 63.7992 64.4983C59.5635 68.5875 54.4687 71.5585 49.0279 73.0577C43.576 74.5599 37.7784 74.5847 32.1498 72.7773C32.0196 72.7355 31.8896 72.6926 31.7596 72.6488C27.0864 72.5803 22.5607 71.5305 18.586 69.273C17.5968 68.7111 16.6404 68.0733 15.723 67.356C13.5237 65.6363 11.5314 63.5638 9.76907 61.2311ZM3.95036 52.7759C4.83274 54.3754 5.89726 55.8629 7.11283 57.2297C6.03786 55.3849 5.08644 53.4345 4.26704 51.4119C2.80464 47.8022 1.75896 44.3219 1.09245 40.9953C1.00188 45.3874 2.05633 49.3427 3.95036 52.7759ZM1.27983 33.1029C2.60915 28.6234 5.02311 23.8307 8.75009 18.7887C12.3893 13.8654 16.9696 9.49112 22.058 6.20248C23.725 5.12507 25.4471 4.16399 27.2091 3.33791C27.0715 3.34854 26.9341 3.35984 26.7972 3.37212C20.5974 3.92773 15.1398 6.15602 10.8806 9.75389C6.62531 13.3484 3.56263 18.3156 2.1482 24.3526C1.51329 27.0626 1.2105 29.9885 1.27983 33.1029ZM37.6368 1.30304C36.0906 1.51145 34.5515 1.84237 33.0287 2.28409C39.6868 2.82626 46.9204 5.10112 54.2922 9.39854C58.5059 11.855 62.3929 14.8601 65.6336 18.308C65.1135 17.2697 64.5501 16.2602 63.9456 15.285C61.0816 10.6656 57.2979 6.81503 52.8577 4.29317C48.3684 1.7434 43.2034 0.552679 37.6368 1.30304ZM69.3234 24.7929C69.8898 26.7467 70.316 28.7522 70.5899 30.7842C71.6365 38.5483 70.4638 46.703 66.4095 53.8413C65.7263 55.0443 64.9359 56.2149 64.0519 57.3454C59.1406 63.6264 51.3487 68.6317 43.013 71.0562C40.4997 71.7872 37.9356 72.284 35.3844 72.5113C39.8759 73.4348 44.4197 73.2067 48.7401 72.0163C54.0062 70.5652 58.9419 67.6853 63.05 63.7194C67.2775 59.6381 70.6263 54.4078 72.5548 48.4017C74.9464 40.9536 74.039 33.9555 71.0074 27.7959C70.5031 26.7713 69.9398 25.7698 69.3234 24.7929Z" fill="black"/>
</g>
</g>
<defs>
<clipPath id="clip0_32_4">
<rect width="75" height="74.1604" fill="white"/>
</clipPath>
<clipPath id="clip1_32_4">
<rect width="75" height="74.1604" fill="white"/>
</clipPath>
</defs>
</svg>
